<svg xmlns="http://www.w3.org/2000/svg" baseProfile="full" version="1.1" style="fill: none;" width="600px" height="150px"><path style="stroke-width: 23px; stroke-linecap: round; stroke-linejoin: round; stroke: black; fill: none;" d="M135,135 A120,120 0 0,0 15,15 M135,135 L135,135 L15,135 L15,135 L15,45 M225,15 A60,60 0 0,0 165,75 L165,75 A60,60 0 0,0 225,135 A60,60 0 0,0 285,75 A60,60 0 0,0 225,15 M375,15 A60,60 0 0,0 315,75 A60,60 0 0,0 375,135 A60,60 0 0,0 435,75 A60,60 0 0,0 375,15 M465,135 A120,120 0 0,1 585,15 M585,135 A60,60 0 0,0 525,75 M465,15 L465,15 L465,45 "/></svg>
