<svg xmlns="http://www.w3.org/2000/svg" baseProfile="full" version="1.1" style="fill: none;" width="1470px" height="660px"><path style="stroke-width: 15px; stroke-linecap: round; stroke-linejoin: round; stroke: rgb(62, 61, 66); fill: none;" d=""/><path style="stroke-width: 15px; stroke-linecap: round; stroke-linejoin: round; stroke: rgb(255, 40, 81); fill: none;" d=""/><path style="stroke-width: 26px; stroke-linecap: round; stroke-linejoin: round; stroke: rgb(255, 255, 255); fill: none;" d="M735,180 L735,180 L735,360 M705,195 L705,195 L705,360 M675,210 L675,210 L675,360 M645,225 L645,225 L645,360 M615,240 L615,240 L615,270 M735,180 L735,180 L735,360 M765,195 L765,195 L765,360 M795,210 L795,210 L795,360 M825,225 L825,225 L825,360 M855,240 L855,240 L855,270 "/></svg>