<svg xmlns="http://www.w3.org/2000/svg" baseProfile="full" version="1.1" style="fill: none;" width="840px" height="240px"><path style="stroke-width: 15px; stroke-linecap: square; stroke-linejoin: miter; stroke: rgb(0, 0, 0); fill: rgb(0, 0, 0);" d=""/><path style="stroke-width: 32px; stroke-linecap: round; stroke-linejoin: round; stroke: rgb(255, 40, 81); fill: none;" d="M105,45 L105,45 L165,45 L210,90 L180,180 L105,225 L45,225 L45,225 L45,225 L105,45 M390,135 L390,135 L480,135 M510,180 L510,180 L540,90 L585,45 L630,45 L660,90 L630,180 L585,225 L540,225 L510,180 M630,45 L630,45 L540,225 M645,225 L645,225 L705,45 M675,135 L675,135 L735,135 L735,135 L825,45 M735,135 L735,135 L765,225 M210,180 L210,180 L240,90 L285,45 L330,45 L360,90 L330,180 L285,225 L240,225 L210,180 M240,225 L240,225 L330,45 "/><path style="stroke-width: 18px; stroke-linecap: round; stroke-linejoin: round; stroke: rgb(255, 255, 255); fill: none;" d="M45,225 L45,225 L105,45 L165,45 L210,90 L180,180 L105,225 L45,225 M210,180 L210,180 L240,90 L285,45 L330,45 L360,90 L330,180 L285,225 L240,225 L240,225 L210,180 M240,225 L240,225 L330,45 M390,135 L390,135 L480,135 M510,180 L510,180 L540,90 L585,45 L630,45 L660,90 L630,180 L585,225 L540,225 L510,180 M540,225 L540,225 L630,45 M705,45 L705,45 L645,225 M675,135 L675,135 L735,135 L735,135 L825,45 M735,135 L735,135 L765,225 "/></svg>