<svg xmlns="http://www.w3.org/2000/svg" baseProfile="full" version="1.1" style="fill: none;" width="885px" height="285px"><path style="stroke-width: 15px; stroke-linecap: square; stroke-linejoin: miter; stroke: rgb(0, 0, 0); fill: rgb(0, 0, 0);" d=""/><path style="stroke-width: 15px; stroke-linecap: round; stroke-linejoin: round; stroke: rgb(255, 40, 81); fill: none;" d="M60,240 L60,240 L120,60 L180,60 L225,105 L195,195 L120,240 L60,240 M255,240 L255,240 L225,195 L255,105 L300,60 L345,60 L375,105 L345,195 L300,240 L255,240 L345,60 M555,240 L555,240 L525,195 L555,105 L600,60 L645,60 L675,105 L645,195 L600,240 L555,240 L645,60 M405,150 L405,150 L495,150 M720,60 L720,60 L660,240 L690,150 L750,150 L840,60 L750,150 L780,240 "/><path style="stroke-width: 18px; stroke-linecap: round; stroke-linejoin: round; stroke: rgb(255, 255, 255); fill: none;" d="M240,225 L240,225 L210,180 L240,90 L285,45 L330,45 L360,90 L330,180 L285,225 L240,225 L330,45 M45,225 L45,225 L105,225 L180,180 L210,90 L165,45 L105,45 L45,225 M540,225 L540,225 L510,180 L540,90 L585,45 L630,45 L660,90 L630,180 L585,225 L540,225 L630,45 M390,135 L390,135 L480,135 M645,225 L645,225 L705,45 L675,135 L735,135 L825,45 L735,135 L765,225 "/></svg>